<?xml version="1.0" standalone="no"?><!DOCTYPE svg PUBLIC "-//W3C//DTD SVG 1.1//EN" "http://www.w3.org/Graphics/SVG/1.1/DTD/svg11.dtd"><svg class="icon" width="200px" height="200.00px" viewBox="0 0 1024 1024" version="1.1" xmlns="http://www.w3.org/2000/svg"><path d="M182.044444 256c5.688889 0 22.755556 11.377778 39.822223 0 17.066667-11.377778 216.177778-130.844444 221.866666-136.533333 11.377778-5.688889 0-17.066667 0-17.066667s-11.377778-17.066667-45.511111-5.688889c-11.377778 5.688889-56.888889 34.133333-73.955555 39.822222h-11.377778l-68.266667-39.822222s-22.755556-11.377778-34.133333-5.688889c-5.688889 5.688889-5.688889 11.377778-5.688889 17.066667l51.2 56.888889V170.666667l-51.2 34.133333h-5.688889l-62.577778-28.444444s-17.066667-5.688889-28.444444 0c-5.688889 5.688889 0 17.066667 5.688889 22.755555 0 5.688889 62.577778 51.2 68.266666 56.888889zM876.088889 341.333333h-34.133333c-11.377778-51.2-56.888889-85.333333-108.088889-85.333333h-341.333334c-56.888889 0-96.711111 34.133333-113.777777 85.333333h-28.444445c-51.2 0-85.333333 39.822222-85.333333 85.333334v45.511111c0 17.066667 11.377778 28.444444 28.444444 28.444444s28.444444-11.377778 28.444445-28.444444v-45.511111c0-17.066667 11.377778-28.444444 28.444444-28.444445h28.444445v369.777778c0 56.888889 39.822222 102.4 91.022222 113.777778v28.444444c0 17.066667 11.377778 28.444444 28.444444 28.444445s28.444444-11.377778 28.444445-28.444445v-28.444444h284.444444v28.444444c0 17.066667 11.377778 28.444444 28.444445 28.444445s28.444444-11.377778 28.444444-28.444445v-34.133333c45.511111-17.066667 79.644444-56.888889 79.644444-108.088889V398.222222h28.444445c17.066667 0 28.444444 11.377778 28.444444 28.444445v45.511111c0 17.066667 11.377778 28.444444 28.444445 28.444444s28.444444-11.377778 28.444444-28.444444v-45.511111c0-45.511111-39.822222-85.333333-85.333333-85.333334z m-483.555556-28.444444h341.333334c34.133333 0 56.888889 22.755556 56.888889 56.888889v227.555555H341.333333h-5.688889v-227.555555c0-34.133333 22.755556-56.888889 56.888889-56.888889z m341.333334 512h-341.333334c-34.133333 0-56.888889-22.755556-56.888889-56.888889v-113.777778h455.111112v113.777778c0 34.133333-28.444444 56.888889-56.888889 56.888889z" fill="#333333" /><path d="M455.111111 426.666667h227.555556c17.066667 0 28.444444-11.377778 28.444444-28.444445s-11.377778-28.444444-28.444444-28.444444H455.111111c-17.066667 0-28.444444 11.377778-28.444444 28.444444s11.377778 28.444444 28.444444 28.444445z" fill="#333333" /><path d="M455.111111 739.555556m-28.444444 0a28.444444 28.444444 0 1 0 56.888889 0 28.444444 28.444444 0 1 0-56.888889 0Z" fill="#333333" /><path d="M682.666667 739.555556m-28.444445 0a28.444444 28.444444 0 1 0 56.888889 0 28.444444 28.444444 0 1 0-56.888889 0Z" fill="#333333" /></svg>