<?xml version="1.0" standalone="no"?><!DOCTYPE svg PUBLIC "-//W3C//DTD SVG 1.1//EN" "http://www.w3.org/Graphics/SVG/1.1/DTD/svg11.dtd"><svg class="icon" width="200px" height="200.00px" viewBox="0 0 1024 1024" version="1.1" xmlns="http://www.w3.org/2000/svg"><path d="M910.222222 512h-56.888889V398.222222c0-28.444444-28.444444-56.888889-56.888889-56.888889h-227.555555c-28.444444 0-56.888889 28.444444-56.888889 56.888889v113.777778H341.333333V455.111111h85.333334c17.066667 0 28.444444-11.377778 28.444444-28.444444v-170.666667c0-17.066667-11.377778-28.444444-28.444444-28.444444h-227.555556c-17.066667 0-28.444444 11.377778-28.444444 28.444444v170.666667c0 17.066667 11.377778 28.444444 28.444444 28.444444H284.444444v56.888889H113.777778c-28.444444 0-56.888889 28.444444-56.888889 56.888889v56.888889c0 28.444444 28.444444 56.888889 56.888889 56.888889v170.666666c0 28.444444 28.444444 56.888889 56.888889 56.888889h682.666666c28.444444 0 56.888889-28.444444 56.888889-56.888889v-170.666666c28.444444 0 56.888889-28.444444 56.888889-56.888889v-56.888889c0-28.444444-28.444444-56.888889-56.888889-56.888889zM227.555556 398.222222V284.444444h170.666666v113.777778H227.555556z m341.333333 28.444445c0-17.066667 11.377778-28.444444 28.444444-28.444445h170.666667c17.066667 0 28.444444 11.377778 28.444444 28.444445V512h-227.555555V426.666667z m284.444444 426.666666H170.666667v-170.666666h682.666666v170.666666z m56.888889-227.555555H113.777778v-56.888889h796.444444v56.888889zM682.666667 284.444444c62.577778 0 113.777778-51.2 113.777777-113.777777s-51.2-113.777778-113.777777-113.777778-113.777778 51.2-113.777778 113.777778 51.2 113.777778 113.777778 113.777777z m0-170.666666c34.133333 0 56.888889 22.755556 56.888889 56.888889s-22.755556 56.888889-56.888889 56.888889-56.888889-22.755556-56.888889-56.888889 22.755556-56.888889 56.888889-56.888889z" fill="#333333" /></svg>