<?xml version="1.0" standalone="no"?><!DOCTYPE svg PUBLIC "-//W3C//DTD SVG 1.1//EN" "http://www.w3.org/Graphics/SVG/1.1/DTD/svg11.dtd"><svg class="icon" width="200px" height="200.00px" viewBox="0 0 1024 1024" version="1.1" xmlns="http://www.w3.org/2000/svg"><path d="M728.9 504.34H330.5a17.5 17.5 0 0 1 0-35h398.4a96.6 96.6 0 1 0-96.61-96.6 17.5 17.5 0 0 1-35 0c0-72.57 59-131.6 131.61-131.6s131.6 59 131.6 131.6-59.04 131.6-131.6 131.6zM471.19 390.7H331a17.5 17.5 0 0 1 0-35h140.19a43.72 43.72 0 1 0-43.71-43.7 17.5 17.5 0 0 1-35 0 78.72 78.72 0 1 1 78.71 78.71zM598.26 806.57A111.42 111.42 0 0 1 487 695.28a17.5 17.5 0 0 1 35 0A76.29 76.29 0 1 0 598.26 619H331.5a17.5 17.5 0 0 1 0-35h266.76a111.29 111.29 0 0 1 0 222.57zM249.86 390.24h-59.21a17.5 17.5 0 1 1 0-35h59.21a17.5 17.5 0 0 1 0 35zM249.86 504.24h-59.21a17.5 17.5 0 1 1 0-35h59.21a17.5 17.5 0 0 1 0 35zM249.86 619.24h-59.21a17.5 17.5 0 1 1 0-35h59.21a17.5 17.5 0 0 1 0 35z" /></svg>