<?xml version="1.0" standalone="no"?><!DOCTYPE svg PUBLIC "-//W3C//DTD SVG 1.1//EN" "http://www.w3.org/Graphics/SVG/1.1/DTD/svg11.dtd"><svg class="icon" width="200px" height="200.00px" viewBox="0 0 1024 1024" version="1.1" xmlns="http://www.w3.org/2000/svg"><path d="M961.422222 563.2c5.688889-17.066667 5.688889-34.133333 5.688889-51.2 0-250.311111-204.8-455.111111-455.111111-455.111111-17.066667 0-34.133333 0-51.2 5.688889-210.488889 22.755556-375.466667 187.733333-398.222222 398.222222-5.688889 17.066667-5.688889 34.133333-5.688889 51.2 0 250.311111 204.8 455.111111 455.111111 455.111111 17.066667 0 34.133333 0 51.2-5.688889 210.488889-22.755556 375.466667-187.733333 398.222222-398.222222zM910.222222 512c-221.866667 0-398.222222-176.355556-398.222222-398.222222 221.866667 0 398.222222 176.355556 398.222222 398.222222zM113.777778 512c221.866667 0 398.222222 176.355556 398.222222 398.222222-221.866667 0-398.222222-176.355556-398.222222-398.222222z m455.111111 392.533333C568.888889 659.911111 364.088889 455.111111 119.466667 455.111111 142.222222 278.755556 278.755556 142.222222 455.111111 119.466667c0 250.311111 204.8 449.422222 449.422222 449.422222-22.755556 176.355556-159.288889 312.888889-335.644444 335.644444z" fill="#333333" /></svg>